<?xml version="1.0" standalone="no"?>
<!DOCTYPE svg PUBLIC "-//W3C//DTD SVG 20010904//EN"
 "http://www.w3.org/TR/2001/REC-SVG-20010904/DTD/svg10.dtd">
<svg version="1.0" xmlns="http://www.w3.org/2000/svg"
 width="512.000000pt" height="512.000000pt" viewBox="0 0 512.000000 512.000000"
 preserveAspectRatio="xMidYMid meet">
<metadata>
Created by potrace 1.14, written by Peter Selinger 2001-2017
</metadata>
<g transform="translate(0.000000,512.000000) scale(0.100000,-0.100000)"
fill="#000000" stroke="none">
<path d="M2559 5048 c-3 -6 -7 -47 -13 -148 -4 -58 -9 -130 -11 -160 -8 -105
-16 -225 -20 -295 -3 -38 -7 -103 -10 -145 -3 -41 -8 -109 -10 -150 -5 -69
-10 -158 -20 -300 -2 -30 -7 -100 -10 -155 -3 -55 -8 -118 -9 -140 -2 -22 -7
-92 -11 -155 -3 -63 -8 -130 -10 -148 -7 -56 23 -106 78 -130 40 -17 64 -15
107 9 72 41 74 57 45 419 -3 36 -7 99 -10 140 -3 41 -7 113 -11 160 -3 47 -7
114 -9 150 -2 36 -6 103 -10 150 -3 47 -8 117 -10 155 -10 152 -16 242 -20
290 -2 28 -7 100 -11 160 -4 61 -8 128 -9 150 -2 22 -4 64 -6 93 -2 45 -5 60
-10 50z"/>
<path d="M3428 4653 c-14 -27 -56 -106 -93 -178 -37 -71 -89 -170 -115 -220
-26 -49 -89 -171 -140 -270 -51 -99 -118 -229 -150 -290 -167 -321 -193 -371
-197 -395 -9 -59 77 -131 158 -133 60 -1 82 21 111 114 14 46 49 156 78 244
29 88 53 167 55 175 2 8 10 33 18 55 9 22 43 128 77 235 84 265 128 402 156
483 13 37 22 67 20 67 -2 0 9 35 25 77 16 42 27 78 25 80 -1 2 -14 -18 -28
-44z"/>
<path d="M1670 4684 c0 -6 9 -39 21 -75 27 -83 29 -89 28 -92 -1 -1 6 -20 14
-42 14 -34 139 -420 142 -435 1 -9 95 -303 115 -360 10 -30 48 -148 84 -261
37 -114 75 -216 85 -228 37 -43 134 -28 191 29 51 51 48 76 -28 221 -32 63
-94 182 -137 264 -43 83 -103 200 -135 260 -32 61 -94 180 -137 265 -130 251
-236 455 -239 459 -2 2 -4 0 -4 -5z"/>
<path d="M4318 4331 c-1 -4 -46 -46 -98 -91 -52 -46 -125 -110 -162 -143 -37
-32 -78 -68 -90 -79 -13 -10 -34 -29 -48 -41 -14 -12 -61 -53 -105 -91 -44
-38 -82 -72 -85 -75 -4 -6 -201 -178 -269 -236 -13 -11 -35 -30 -49 -43 -14
-12 -50 -44 -80 -70 -31 -26 -63 -54 -72 -62 -9 -8 -47 -42 -85 -75 -39 -33
-86 -74 -105 -92 -48 -43 -81 -72 -106 -92 -37 -30 -55 -66 -51 -106 9 -78 81
-132 162 -120 41 7 52 15 116 89 134 152 176 201 235 271 33 38 66 76 74 85 8
9 33 37 55 64 22 27 49 58 60 71 11 12 31 35 45 51 14 16 56 65 94 109 39 44
77 88 85 98 9 10 25 29 36 41 11 12 38 44 60 71 22 26 47 55 56 64 8 9 40 45
70 81 30 36 56 67 59 70 9 9 135 155 145 168 5 7 19 23 30 35 38 42 48 57 37
57 -6 0 -12 -4 -14 -9z"/>
<path d="M830 4260 c35 -41 82 -95 105 -120 22 -25 54 -62 70 -81 44 -50 169
-193 175 -199 3 -3 34 -39 70 -80 36 -41 70 -80 75 -86 28 -32 76 -86 130
-149 32 -38 64 -74 70 -80 6 -5 38 -41 71 -80 32 -38 66 -76 74 -85 26 -29 83
-94 140 -160 147 -170 212 -238 233 -244 79 -20 167 53 167 139 0 53 -24 82
-170 205 -29 25 -58 50 -64 55 -6 6 -58 51 -116 100 -58 50 -107 92 -110 95
-3 3 -36 33 -75 66 -38 32 -83 71 -100 86 -16 14 -102 88 -190 163 -88 76
-174 150 -190 165 -17 14 -62 53 -100 85 -39 32 -77 65 -86 74 -8 9 -35 32
-59 51 -23 19 -61 52 -84 73 -85 79 -102 82 -36 7z"/>
<path d="M4675 3440 c-27 -10 -117 -39 -200 -65 -82 -26 -181 -57 -220 -70
-38 -13 -144 -46 -235 -75 -91 -29 -208 -66 -260 -83 -52 -17 -97 -32 -100
-32 -5 -1 -76 -22 -92 -27 -4 -1 -82 -27 -175 -57 -162 -54 -169 -57 -184 -91
-42 -88 23 -210 110 -210 17 0 59 15 93 34 35 18 128 67 208 108 165 86 350
182 525 273 66 34 203 106 305 158 301 156 337 177 225 137z"/>
<path d="M420 3417 c25 -13 284 -144 575 -292 292 -147 586 -297 655 -332 153
-77 169 -81 209 -48 58 49 76 151 35 196 -11 12 -109 48 -253 95 -130 41 -247
79 -261 84 -28 10 -472 154 -480 155 -3 1 -39 12 -80 25 -41 13 -77 24 -80 25
-8 1 -143 46 -160 52 -8 3 -26 8 -40 10 -13 2 -29 8 -35 13 -5 4 -29 13 -53
20 -24 6 -51 13 -60 16 -9 3 3 -6 28 -19z"/>
<path d="M2485 2999 c-145 -27 -277 -124 -340 -253 -24 -49 -28 -62 -40 -130
-33 -180 62 -380 226 -474 141 -80 324 -80 464 2 184 108 270 338 203 546 -67
208 -298 347 -513 309z"/>
<path d="M1807 2664 c-1 -1 -49 -5 -107 -9 -58 -3 -132 -8 -165 -10 -33 -2
-103 -7 -155 -10 -52 -3 -117 -8 -145 -10 -27 -2 -97 -7 -155 -10 -58 -4 -125
-8 -150 -11 -25 -2 -88 -6 -140 -9 -52 -3 -117 -8 -145 -10 -27 -2 -97 -7
-155 -10 -58 -3 -130 -8 -160 -10 -30 -2 -102 -7 -160 -11 -98 -5 -159 -19
-87 -20 39 0 268 -14 317 -19 34 -3 161 -12 305 -20 95 -6 215 -14 300 -20 78
-6 166 -12 300 -20 50 -3 119 -8 155 -11 36 -2 103 -6 150 -9 47 -3 117 -8
155 -11 142 -13 162 -11 200 26 68 66 53 163 -32 208 -17 10 -117 14 -126 6z"/>
<path d="M3172 2657 c-35 -20 -53 -53 -57 -104 -6 -72 35 -132 91 -135 16 -1
76 2 134 6 58 4 132 9 165 11 141 9 234 15 285 19 62 5 226 16 315 22 143 8
337 21 445 29 30 3 98 7 150 10 52 3 118 7 145 10 28 2 80 5 118 7 76 2 92 17
20 19 -27 1 -66 3 -88 4 -22 2 -78 6 -125 9 -47 3 -114 8 -150 11 -36 2 -108
7 -160 10 -52 4 -117 8 -145 10 -27 3 -90 7 -140 10 -49 3 -115 7 -145 9 -30
2 -104 7 -165 11 -60 4 -130 8 -155 10 -25 2 -88 6 -140 10 -127 8 -199 13
-295 20 -57 4 -87 1 -103 -8z"/>
<path d="M5055 2540 c3 -5 8 -10 11 -10 2 0 4 5 4 10 0 6 -5 10 -11 10 -5 0
-7 -4 -4 -10z"/>
<path d="M1633 2299 c-87 -45 -203 -105 -258 -134 -55 -29 -167 -87 -250 -130
-82 -43 -199 -104 -260 -135 -60 -31 -191 -99 -290 -150 -99 -51 -182 -95
-184 -97 -14 -11 146 37 429 130 19 6 37 12 40 12 3 1 43 14 90 29 47 16 90
29 95 30 9 2 76 23 465 148 69 22 165 53 214 69 49 16 94 29 99 29 24 0 75 34
86 56 32 71 -23 196 -96 218 -15 5 -65 -16 -180 -75z"/>
<path d="M3265 2366 c-72 -32 -107 -108 -82 -180 15 -48 42 -71 99 -85 29 -8
58 -16 63 -20 6 -3 15 -6 20 -7 6 -2 161 -50 345 -109 503 -160 523 -167 545
-172 11 -2 29 -9 40 -13 11 -5 81 -28 155 -50 74 -23 161 -51 193 -62 31 -12
59 -19 62 -17 2 3 -60 38 -138 78 -78 40 -191 99 -252 131 -689 359 -977 507
-1000 513 -11 4 -33 0 -50 -7z"/>
<path d="M2005 2163 c-17 -15 -80 -84 -140 -153 -60 -69 -122 -138 -137 -155
-15 -16 -35 -39 -45 -51 -15 -17 -117 -133 -158 -178 -43 -48 -156 -177 -176
-200 -13 -16 -31 -36 -39 -45 -9 -9 -52 -56 -95 -106 -44 -49 -84 -95 -90
-101 -9 -10 -106 -120 -145 -164 -50 -57 -147 -167 -160 -180 -8 -9 -24 -27
-35 -41 l-20 -24 25 21 c36 30 163 137 176 149 6 6 33 29 61 52 27 24 61 53
75 65 13 13 48 43 78 68 30 25 64 54 76 65 12 11 43 38 70 60 26 22 52 45 58
51 6 5 61 52 121 104 61 52 112 96 115 100 5 5 109 94 159 135 13 11 31 27 40
36 9 8 81 71 161 139 219 187 221 189 225 241 5 75 -43 129 -124 136 -40 4
-50 1 -76 -24z"/>
<path d="M2995 2181 c-35 -15 -74 -62 -81 -97 -9 -50 11 -87 79 -146 33 -29
65 -58 71 -63 6 -6 106 -91 221 -190 116 -98 212 -182 215 -185 3 -3 70 -62
150 -130 80 -68 147 -127 150 -130 3 -3 21 -18 40 -34 19 -16 62 -52 95 -81
168 -148 410 -353 413 -351 1 2 -12 19 -30 38 -18 19 -56 61 -84 94 -42 49
-161 185 -295 339 -15 16 -64 73 -110 125 -45 52 -87 100 -93 106 -6 7 -33 38
-61 70 -76 88 -339 390 -409 469 -35 39 -78 87 -96 108 -53 61 -116 82 -175
58z"/>
<path d="M2500 1993 c-65 -40 -71 -66 -56 -263 8 -106 13 -187 21 -305 2 -44
7 -111 10 -150 3 -38 7 -115 10 -170 3 -55 7 -118 10 -140 2 -22 7 -87 10
-145 3 -58 7 -125 10 -150 2 -25 7 -92 10 -150 4 -58 8 -125 10 -150 4 -51 18
-278 18 -297 0 -7 3 -10 7 -8 4 2 8 33 9 67 2 35 4 81 6 103 2 22 6 85 10 140
3 55 8 120 10 145 2 25 7 88 10 140 7 131 15 245 20 310 2 30 7 98 10 150 3
52 8 120 10 150 6 78 16 245 20 310 2 30 6 96 10 145 13 163 13 180 -1 210
-30 62 -119 92 -174 58z"/>
<path d="M2838 1923 c-27 -4 -97 -72 -99 -96 0 -6 -2 -21 -4 -32 -4 -19 27
-85 142 -305 28 -52 85 -162 128 -245 42 -82 106 -204 140 -270 34 -66 100
-192 145 -280 134 -258 164 -315 167 -311 2 1 -8 34 -21 72 -13 38 -38 112
-54 164 -60 189 -86 275 -87 280 0 3 -25 79 -54 170 -89 278 -137 427 -201
628 -66 207 -74 220 -141 226 -19 1 -46 1 -61 -1z"/>
<path d="M2167 1898 c-17 -15 -36 -55 -56 -118 -108 -335 -159 -494 -230 -715
-44 -137 -90 -281 -103 -320 -12 -38 -23 -72 -23 -75 -2 -7 -72 -221 -81 -245
-5 -14 -4 -17 4 -10 11 10 57 99 428 835 109 217 201 397 204 400 9 9 70 146
70 158 0 48 -67 99 -143 108 -36 5 -48 2 -70 -18z"/>
</g>
</svg>
